<svg xmlns="http://www.w3.org/2000/svg" viewBox="0 0 88.63 57.3"><title>Ass12et 1</title><g id="Layer_2" data-name="Layer 2"><g id="Layer_1-2" data-name="Layer 1"><path d="M88.5,28a5.11,5.11,0,0,0-5-3.6,5,5,0,0,0-2.4.6c-3,1.4-14,6.6-18.6,8.6v-.2h-.1A5.27,5.27,0,0,0,57.2,29H46.9a27.31,27.31,0,0,1-8.4-1.7,32.11,32.11,0,0,0-9.6-1.8C23,25.5,20.1,27,16.2,29c-1.6.8-3.5,1.8-5.8,2.8V29.1H0V57.3H10.6V53.4a64.12,64.12,0,0,1,17.6-2.3h1c6.5,0,10,.4,14.6,1.6a11.55,11.55,0,0,0,7.7-.7c9.1-4,24.2-11.9,32.9-16.9C89,32.2,88.8,29.1,88.5,28ZM8.8,55.4h-7V30.7h7V55.4ZM83.5,33.3c-8.7,5-23.7,12.9-32.7,16.8a10,10,0,0,1-6.5.7c-4.7-1.2-8.3-1.6-15-1.6h-1a68.92,68.92,0,0,0-17.6,2.2V33.6c2.7-1.1,4.8-2.2,6.6-3.1,3.9-2,6.4-3.3,11.9-3.3a28.8,28.8,0,0,1,9,1.8,28.76,28.76,0,0,0,8.9,1.8H57.4a3.56,3.56,0,0,1,3.5,3.1,4.36,4.36,0,0,1-4.4,3.9H31.7v1.7H56.3A6.16,6.16,0,0,0,62,35.7c4-1.7,19.7-9.1,19.8-9.1a3.29,3.29,0,0,1,1.7-.4,3.5,3.5,0,0,1,3.3,2.3C87.2,30.1,86,31.9,83.5,33.3Z"/><path d="M43.1,19.3a5.44,5.44,0,0,0,5.5,5.3,5.51,5.51,0,0,0,5.5-5.3h9.7a5.44,5.44,0,0,0,5.5,5.3,5.51,5.51,0,0,0,5.5-5.3h7V17.4A8.67,8.67,0,0,0,75.5,9l-4-1.2-.6-.6C67.1,3,64.3,0,57.7,0h-.1c-6.3,0-9,2.3-13.1,5.7a14.7,14.7,0,0,1-1.3,1,6.9,6.9,0,0,1-1.7,1.1A5.6,5.6,0,0,0,37.8,13v1A5.27,5.27,0,0,0,43.1,19.3Zm5.5,3.5A3.8,3.8,0,1,1,52.4,19,3.8,3.8,0,0,1,48.6,22.8Zm20.8,0A3.8,3.8,0,1,1,73.2,19,3.8,3.8,0,0,1,69.4,22.8ZM58.1,1.6c5.4.1,7.7,2.4,11.2,6.2H58.1ZM45.7,6.9C49.4,3.8,51.6,2,56.4,1.7V7.8H44.6A10.63,10.63,0,0,1,45.7,6.9Zm-4,2.7h30l3.4,1a7,7,0,0,1,5,6.8v.1H74.7a5.51,5.51,0,0,0-10.6,0H53.9a5.51,5.51,0,0,0-10.6,0h-.2a3.39,3.39,0,0,1-3.5-3.6v-1A3.63,3.63,0,0,1,41.7,9.6Z"/></g></g></svg>