<svg xmlns="http://www.w3.org/2000/svg" viewBox="0 0 74.01 73.92"><title>Asset 1</title><g id="Layer_2" data-name="Layer 2"><g id="Layer_1-2" data-name="Layer 1"><path d="M36.81,0A2,2,0,0,0,35,2V6a2,2,0,0,0,2,2,2.07,2.07,0,0,0,2-2V2A2,2,0,0,0,36.81,0Zm.1,10a2.13,2.13,0,0,0-1.9,1.9c-.3,7.5-.6,14.9-.9,22.4A3.69,3.69,0,0,0,33,37c-3.4,3.7-6.6,7.5-9.5,10.7a2.25,2.25,0,0,0,.1,2.7,2,2,0,0,0,2.7.1c3.7-3.3,7.5-6.7,10.7-9.5a4,4,0,0,0,4-4,3.69,3.69,0,0,0-1.1-2.7c-.3-7.4-.7-14.9-.9-22.3A2.16,2.16,0,0,0,36.91,10Zm-25.9.7a2.41,2.41,0,0,0-.1,2.9l2.8,2.8a2.18,2.18,0,0,0,3,.2,2.09,2.09,0,0,0-.2-3l-2.8-2.8c-1-.8-1.7-.6-2.7-.1Zm49.3.1-2.8,2.8a2.05,2.05,0,0,0,0,2.9,2.13,2.13,0,0,0,2.8,0l2.8-2.8a2.26,2.26,0,0,0,0-2.9,2,2,0,0,0-2.8,0ZM1.91,35a2,2,0,0,0,.2,4h4a2,2,0,0,0,2-2,2.07,2.07,0,0,0-2-2Zm65.9,0a2,2,0,1,0,.2,4h4a2,2,0,0,0,2-2,2.07,2.07,0,0,0-2-2Zm-54,22.4L11,60.22A2.13,2.13,0,0,0,11,63a2.13,2.13,0,0,0,2.8,0l2.8-2.8c.8-1.3.7-2.1-.2-3a2.24,2.24,0,0,0-2.6.2Zm43.8-.1a2.15,2.15,0,0,0-.1,2.9l2.8,2.8a2.05,2.05,0,0,0,2.9,0,2.26,2.26,0,0,0,0-2.9l-2.8-2.8a2.25,2.25,0,0,0-2.8,0Zm-20.8,8.6a2,2,0,0,0-1.8,2v4a2,2,0,0,0,2,2,2.07,2.07,0,0,0,2-2v-4A2.06,2.06,0,0,0,36.81,65.92Z"/></g></g></svg>