<svg xmlns="http://www.w3.org/2000/svg" viewBox="0 0 26.94 31.67"><title>Asset 221</title><g id="Layer_2" data-name="Layer 2"><g id="Layer_1-2" data-name="Layer 1"><path d="M21.77,23.17l2.8,6.1-3.2-.1-2,2.5-2.5-5.4h0a1,1,0,0,1-1.4.3l-1.1-.7a1.72,1.72,0,0,0-1.7,0l-1.1.7a1,1,0,0,1-1.4-.3h0l-2.5,5.4-2-2.5-3.2.1,2.8-6.1-.1-.5A1.63,1.63,0,0,0,4,21.47l-1.3-.2a1,1,0,0,1-.8-1.2l.3-1.3a1.72,1.72,0,0,0-.6-1.5l-1.1-.7a1,1,0,0,1-.3-1.4l.7-1.1a1.72,1.72,0,0,0,0-1.7l-.7-1.1a1.58,1.58,0,0,1,.5-1.2l1.1-.7a1.5,1.5,0,0,0,.6-1.5l-.3-1.3A1.11,1.11,0,0,1,3,5.37l1.3-.2a1.82,1.82,0,0,0,1.1-1.3l.2-1.3a1,1,0,0,1,1.2-.8l1.3.3a1.34,1.34,0,0,0,1.5-.6l.7-1.1a1.09,1.09,0,0,1,1.4-.2l1.1.7a1.72,1.72,0,0,0,1.7,0l1.1-.7a1,1,0,0,1,1.4.3l.7,1.1a1.5,1.5,0,0,0,1.5.6l1.3-.3a1.1,1.1,0,0,1,1.2.8l.2,1.3a1.63,1.63,0,0,0,1.2,1.2l1.2.2a1,1,0,0,1,.8,1.2l-.3,1.3a1.72,1.72,0,0,0,.6,1.5l1.1.7a1,1,0,0,1,.3,1.4l-.7,1.1a1.72,1.72,0,0,0,0,1.7l.7,1.1a1,1,0,0,1-.3,1.4l-1.1.7a1.5,1.5,0,0,0-.6,1.5l.3,1.3a1.1,1.1,0,0,1-.8,1.2l-1.3.2a1.63,1.63,0,0,0-1.2,1.2Zm-.5,1.4a.9.9,0,0,1-.9.2l-1.3-.3a1.72,1.72,0,0,0-1.5.6l-.1.1,2.1,4.5,1.3-1.6,2,.1Zm-11.6.7h0a1.83,1.83,0,0,0-1.6-.7l-1.3.3a1,1,0,0,1-.9-.2l-1.6,3.5,2-.1,1.3,1.6Zm6.2-.6.7-1a2.47,2.47,0,0,1,2.4-1l1.2.2.2-1.2a2.37,2.37,0,0,1,1.8-1.8l1.2-.2-.2-1.2a2.29,2.29,0,0,1,1-2.4l1-.7-.7-1a2.44,2.44,0,0,1,0-2.6l.7-1-1-.7a2.47,2.47,0,0,1-1-2.4l.2-1.2-1.2-.2a2.37,2.37,0,0,1-1.8-1.8l-.2-1.2-1.2.2a2.29,2.29,0,0,1-2.4-1l-.7-1-1,.7a2.44,2.44,0,0,1-2.6,0l-1-.7-.7,1a2.47,2.47,0,0,1-2.4,1L7,3.27l-.2,1.2A2.37,2.37,0,0,1,5,6.27l-1.2.2L4,7.67a2.29,2.29,0,0,1-1,2.4l-1,.7.7,1a2.44,2.44,0,0,1,0,2.6l-.7,1,1,.7a2.47,2.47,0,0,1,1,2.4l-.2,1.2,1.2.2a2.37,2.37,0,0,1,1.8,1.8l.2,1.2,1.2-.2a2.29,2.29,0,0,1,2.4,1l.7,1,1-.7a2.44,2.44,0,0,1,2.6,0Zm-2.3-2.4a9,9,0,1,1,9-9A9,9,0,0,1,13.57,22.27Zm0-1a8,8,0,1,0-8-8A8,8,0,0,0,13.57,21.27Zm-3.7-7.9.3-.3a.48.48,0,0,1,.7,0l1.3,1.3a.48.48,0,0,0,.7,0l3.3-3.3a.48.48,0,0,1,.7,0l.3.3a.48.48,0,0,1,0,.7l-3.9,4a1,1,0,0,1-1.4,0L10,14.17A.62.62,0,0,1,9.87,13.37Z"/></g></g></svg>