<svg xmlns="http://www.w3.org/2000/svg" viewBox="0 0 72.27 28.74"><defs><style>.cls-1{fill:none;stroke:#000;stroke-miterlimit:22.93;stroke-width:1.42px;fill-rule:evenodd;}</style></defs><title>Asset 9</title><g id="Layer_2" data-name="Layer 2"><g id="Layer_1-2" data-name="Layer 1"><path class="cls-1" d="M27.8,14.47a3.35,3.35,0,1,0,3.35,3.35,3.35,3.35,0,0,0-3.35-3.35Zm19.8-6A5.36,5.36,0,1,0,53,13.79,5.36,5.36,0,0,0,47.6,8.43ZM27.8,10.79a7,7,0,1,0,7,7,7,7,0,0,0-7-7ZM61,22.86c-2.37,3.06-5.27,5.25-10,5.17l-47.4-.76C.37,26.91.18,24.37,1.41,22.1l6.28-9.57c2.1-3.2,4.14-4.32,7.93-4.82L67.86.79c3.1-.48,4.68,1.2,3,3.68-3.75,5.79-11.4,17.42-14.17,19.32a6.18,6.18,0,0,1-3.82,1l-45.27.05c-1.28,0-1.57-1.06-1-2l4.91-7.63C13,13.06,14.3,12.5,16.82,12L67.13,6M47.6,11.54a2.25,2.25,0,1,0,2.26,2.25,2.25,2.25,0,0,0-2.26-2.25ZM45.46,6.16l5.91-.75m1.57-.2,6.35-.8m1.65-.2,5.89-.76"/></g></g></svg>