<svg xmlns="http://www.w3.org/2000/svg" viewBox="0 0 71.77 54.77"><defs><style>.cls-1{fill:none;stroke:#000;stroke-miterlimit:22.93;stroke-width:1.42px;fill-rule:evenodd;}</style></defs><title>Asset 8</title><g id="Layer_2" data-name="Layer 2"><g id="Layer_1-2" data-name="Layer 1"><path class="cls-1" d="M46.88,15.14l1.71-6.67a2.41,2.41,0,0,0,2.19-1.8l.89-3.56a1.2,1.2,0,0,0-.86-1.45L47.16.74a1.2,1.2,0,0,0-1.45.87l-.89,3.56a2.39,2.39,0,0,0,.92,2.52L44,14.42M36.44,21l.19-2c0-.34.33-.35.66-.3L52.34,20.9m-15-2.49.45-2.35a.61.61,0,0,1,.7-.52L51.65,19M39.29,15.7l.53-2.13a.5.5,0,0,1,.61-.37l10.28,3.27L53.5,24M35.68,24v-2.1a.61.61,0,0,1,.62-.62L53,22.71M35.68,24.52H62.52a2.14,2.14,0,0,1,2.14,2.14v2.67l6.4,1.74v5.26l-6.4,1.74V40.2a2.16,2.16,0,0,1-2.14,2.14h-7L55,43.57c-.83,1.91-2,3.86-3.76,3.86H35.63L9.9,54.06H3.45V37.81H.71V29.88H3.45V13.63H9.9L35.68,24.52Zm29,4.81v8.74M3.45,29.56v8.25M9.9,13.63V54.06m.33-33.35,25.35,7.82M10.23,34.85l25.14.54M10.23,28.28l25.35,3.44M10.23,41.18l25.35-2.35m-25.35,10,25.35-6.46M19.2,17.18v34.6m8.19-30.72V50m8.24-25.47V47.43m19.91-5.09H35.63M36,28.53H56.9a1.36,1.36,0,0,1,1.36,1.36V36.8a1.37,1.37,0,0,1-1.36,1.37H36m1.28-7.24h1.15m16.4,0H56M37.31,35.72h1.15m16.4,0H56"/></g></g></svg>