<svg xmlns="http://www.w3.org/2000/svg" viewBox="0 0 62.86 55.68"><defs><style>.cls-1{fill:none;stroke:#000;stroke-miterlimit:22.93;stroke-width:1.42px;fill-rule:evenodd;}</style></defs><title>Asset 7</title><g id="Layer_2" data-name="Layer 2"><g id="Layer_1-2" data-name="Layer 1"><path class="cls-1" d="M31.42,29.48a8.75,8.75,0,1,1-8.74,8.75,8.75,8.75,0,0,1,8.74-8.75Zm0-13.38a4.9,4.9,0,1,1-4.9,4.9,4.89,4.89,0,0,1,4.9-4.9Zm4.72,3.56,3.7,16.19M23,35.86l3.72-16.27M15.28,36.39a1.17,1.17,0,1,1-1.16,1.16,1.16,1.16,0,0,1,1.16-1.16Zm31.47,3.88a1.56,1.56,0,1,1-1.56,1.56,1.56,1.56,0,0,1,1.56-1.56Zm0-11a1.32,1.32,0,1,1-1.32,1.32,1.32,1.32,0,0,1,1.32-1.32Zm-11-10.66L47.49,26.8M49.75,33v6.56m-5,5.41H36.94M24.5,43.65l-9-2.79m.28-6.61,9-1.66M20,24.72a1.81,1.81,0,1,1-1.81,1.81A1.81,1.81,0,0,1,20,24.72Zm20.47,25-.69,3.65A1.8,1.8,0,0,1,38.06,55H24.8a1.8,1.8,0,0,1-1.72-1.64l-.69-3.65M3.63,22.28,1.12,19.21a1.72,1.72,0,0,1-.35-1l-.06-1.9A.88.88,0,0,1,1,15.64l2.12-2.19L2.9,13a.37.37,0,0,1,0-.47l2.7-2.37c.14-.12.31-.07.47,0l.38.23L9.33,8a.74.74,0,0,1,.94.06c2.23,1.64,4.48,3.19,6.79,4.72a2.65,2.65,0,0,0,1.34.43H44.46a2.65,2.65,0,0,0,1.34-.43c2.31-1.53,4.56-3.08,6.79-4.72A.74.74,0,0,1,53.53,8l2.85,2.5.38-.23c.16-.1.33-.15.47,0l2.7,2.37A.37.37,0,0,1,60,13l-.18.41,2.12,2.19a.88.88,0,0,1,.25.68l-.06,1.9a1.72,1.72,0,0,1-.35,1l-2.41,3.15m-5.52-5.71,5.46,4.8-2.34,2.91-.91-.1-2.36,3.32V42.37a6.29,6.29,0,0,1-5.36,6.18l-6.82,1.09H21.38a1.88,1.88,0,0,1-2-1.41l-1.24-3.59L11.06,44a2.08,2.08,0,0,1-2-2V33.93a2.18,2.18,0,0,1,2-2l-.5-3L6.84,24.26l-.91.1L3.59,21.45l5.46-4.8M27.53,3.35V1.19A.49.49,0,0,1,28,.71h6.84a.49.49,0,0,1,.48.48V3.35M23,3.63h17m-30,3.71L10.21,6c.09-.43.41-.62.83-.8A46.44,46.44,0,0,1,21.88,2.57a.7.7,0,0,1,.75.61l1.1,5.33a1.23,1.23,0,0,0,1.13,1.13H38a1.23,1.23,0,0,0,1.13-1.13l1.09-5.33A.72.72,0,0,1,41,2.57,46.56,46.56,0,0,1,51.82,5.2c.42.18.74.37.83.8l.29,1.34M31.43,19a2,2,0,1,1-2,2,2,2,0,0,1,2-2Zm0,15.37a3.82,3.82,0,1,1-3.82,3.82,3.82,3.82,0,0,1,3.82-3.82Zm15.32-7.64a3.82,3.82,0,1,1-3.82,3.82,3.82,3.82,0,0,1,3.82-3.82Zm0,11.16a3.9,3.9,0,1,1-3.89,3.9,3.9,3.9,0,0,1,3.89-3.9ZM15.28,34.17a3.38,3.38,0,1,1-3.38,3.38A3.39,3.39,0,0,1,15.28,34.17Z"/></g></g></svg>