<svg xmlns="http://www.w3.org/2000/svg" viewBox="0 0 280.19 80.71"><defs><style>.cls-1{fill:#f0ad4e;}</style></defs><title>stero</title><g id="Layer_2" data-name="Layer 2"><g id="_ÎÓÈ_1" data-name="—ÎÓÈ_1"><path class="cls-1" d="M74.55,0H4.43A4.43,4.43,0,0,0,0,4.43V76.28a4.43,4.43,0,0,0,4.43,4.43H74.55c9-11.64,14.2-25.49,14.2-40.36A65.7,65.7,0,0,0,74.55,0ZM43.39,64.56A24.21,24.21,0,1,1,67.6,40.35,24.23,24.23,0,0,1,43.39,64.56Z"/><path class="cls-1" d="M275.76,0H83.61a78.42,78.42,0,0,1,4.83,8.31,70.94,70.94,0,0,1,0,64.09,78.42,78.42,0,0,1-4.83,8.31H275.76a4.43,4.43,0,0,0,4.43-4.43V4.43A4.43,4.43,0,0,0,275.76,0ZM246.47,69H107.11V64.93H246.47Zm0-15.41H107.11V19.25H246.47Zm8.81-7.33v-27h8.43v27Zm14.67,0h-4v-27h4Z"/><circle class="cls-1" cx="43.39" cy="40.35" r="17.92"/></g></g></svg>