<svg xmlns="http://www.w3.org/2000/svg" viewBox="0 0 574 574"><defs><style>.cls-1,.cls-2,.cls-3,.cls-4{fill:none;stroke:#f0ad4e;stroke-miterlimit:10;}.cls-1{stroke-width:25px;}.cls-2{stroke-width:14px;}.cls-3{stroke-width:18px;}.cls-4{stroke-width:12px;}</style></defs><title>circtuit</title><g id="Layer_2" data-name="Layer 2"><g id="_ÎÓÈ_1" data-name="—ÎÓÈ_1"><rect class="cls-1" x="105.95" y="105.95" width="362.11" height="362.11" rx="32.38"/><circle class="cls-2" cx="255.87" cy="200" r="15"/><line class="cls-3" x1="287" y1="74" x2="287"/><line class="cls-3" x1="347" y1="74" x2="347"/><line class="cls-4" x1="407" y1="105.95" x2="407" y2="190"/><line class="cls-3" x1="407" x2="407" y2="74"/><line class="cls-3" x1="227" y1="74" x2="227"/><line class="cls-3" x1="167" y1="74" x2="167"/><line class="cls-3" x1="287" y1="574" x2="287" y2="500"/><line class="cls-3" x1="347" y1="574" x2="347" y2="500"/><line class="cls-3" x1="407" y1="574" x2="407" y2="500"/><line class="cls-4" x1="227" y1="468.05" x2="227" y2="407"/><line class="cls-3" x1="227" y1="574" x2="227" y2="500"/><line class="cls-4" x1="167" y1="468.05" x2="167" y2="360.2"/><line class="cls-3" x1="167" y1="574" x2="167" y2="500"/><path class="cls-4" d="M468.05,287H425.16A20,20,0,0,0,411,292.86l-21.28,21.28A20,20,0,0,1,375.59,320H317.87"/><line class="cls-3" x1="574" y1="287" x2="500" y2="287"/><path class="cls-4" d="M468.05,347H430.16A20,20,0,0,0,416,352.86l-20.53,20.53"/><line class="cls-3" x1="574" y1="347" x2="500" y2="347"/><line class="cls-3" x1="500" y1="407" x2="574" y2="407"/><line class="cls-3" x1="500" y1="227" x2="574" y2="227"/><line class="cls-3" x1="500" y1="167" x2="574" y2="167"/><line class="cls-3" y1="287" x2="74" y2="287"/><line class="cls-3" y1="347" x2="74" y2="347"/><line class="cls-3" y1="407" x2="74" y2="407"/><path class="cls-4" d="M106,167H209.71a20,20,0,0,1,12.7,4.55L244.87,190"/><line class="cls-3" y1="167" x2="74" y2="167"/><circle class="cls-2" cx="205.87" cy="260" r="15"/><path class="cls-4" d="M106,227h53.76a20,20,0,0,1,12.7,4.55L194.87,250"/><line class="cls-3" y1="227" x2="74" y2="227"/><circle class="cls-2" cx="226.87" cy="392" r="15"/><circle class="cls-2" cx="406.87" cy="205" r="15"/><circle class="cls-2" cx="302.87" cy="320" r="15"/><circle class="cls-2" cx="384.87" cy="384" r="15"/><circle class="cls-2" cx="167" cy="345.2" r="15"/><path class="cls-4" d="M347,106V187a29,29,0,0,1-6.15,17.86L320.47,231"/><circle class="cls-2" cx="311.23" cy="242.77" r="15"/></g></g></svg>