<svg xmlns="http://www.w3.org/2000/svg" viewBox="0 0 55.11 35.03"><defs><style>.cls-1{fill:none;stroke:#f0ad4e;stroke-miterlimit:22.93;stroke-width:1.42px;fill-rule:evenodd;}</style></defs><title>asset10</title><g id="Layer_2" data-name="Layer 2"><g id="Layer_1-2" data-name="Layer 1"><path class="cls-1" d="M40.87,8.57V6.38m0-1V3.16m-4.55,5.9h2.36V2.67H36.32m-7.08-.55h6.63V9.61H27.33V27.69M.3,14.91A6.65,6.65,0,0,1,3,14.33H9.22V12.72H11v-.5m18.21,0,22.13.29c4.11.05,4.11,18.51,0,18.55l-24,.3v2a1,1,0,0,1-1,1H12a1,1,0,0,1-1-1V30.84H9.22V29.23H3A6.65,6.65,0,0,1,.3,28.64M11,27.26V9.64l-1.4-1V3.08l1.4-1V1.7a1,1,0,0,1,1-1H26.34a1,1,0,0,1,1,1V5.87M11,9.64h9.27"/></g></g></svg>