<svg xmlns="http://www.w3.org/2000/svg" viewBox="0 0 69.1 74.9"><title>calendar</title><g id="Layer_2" data-name="Layer 2"><g id="Layer_1-2" data-name="Layer 1"><path id="a" d="M69.1,30.3V19.6a8.92,8.92,0,0,0-8.9-8.9H55.8V4.9C55.8,2.2,52.7,0,50,0s-5.8,2.2-5.8,4.9v5.8H25.8V4.9C25.8,2.2,22.7,0,20,0s-5.8,2.2-5.8,4.9v5.8H8.9A8.92,8.92,0,0,0,0,19.6V64.9a10,10,0,0,0,10,10H59a10,10,0,0,0,10-10V30.3ZM21.8,10.6v4H48.2V4.9c0-.1.1-.2.4-.4A2.66,2.66,0,0,1,50,3.9a2.66,2.66,0,0,1,1.4.6,1.2,1.2,0,0,1,.4.4v9.7h8.4a4.91,4.91,0,0,1,4.9,4.9V29.8H4.1V19.5A4.91,4.91,0,0,1,9,14.6h9.3V4.9c0-.1.1-.2.4-.4a2.66,2.66,0,0,1,1.4-.6,2.66,2.66,0,0,1,1.4.6,1.2,1.2,0,0,1,.4.4v5.7ZM4.1,34.3h61V64.9a6,6,0,0,1-6,6h-49a6,6,0,0,1-6-6Z"/></g></g></svg>