<svg xmlns="http://www.w3.org/2000/svg" viewBox="0 0 80 67.13"><title>car</title><g id="Layer_2" data-name="Layer 2"><g id="Layer_1-2" data-name="Layer 1"><path d="M79.9,17.1c-.6-1.2-2.3-2.1-5-2.2-3.4-.2-4.6,3.4-2.3,5.2a2.05,2.05,0,0,1-.9,2c-.2-.3-.3-.5-.5-.8-.4-.9-.8-1.8-1.2-2.8-1.8-4.7-3.6-9-5.7-13.7a5.65,5.65,0,0,0-3.7-3.2C54.9.3,47.6.1,40.1,0h0C32.6.1,25.3.3,19.6,1.6a5.65,5.65,0,0,0-3.7,3.2c-2.1,4.7-3.9,9.1-5.7,13.7-.4.9-.8,1.9-1.2,2.8-.2.3-.3.5-.5.8a2.26,2.26,0,0,1-.9-2c2.2-1.8,1.1-5.4-2.3-5.2-2.7.1-4.4,1-5,2.2a.91.91,0,0,0-.3.8c.2,1.8,1.8,2.5,3.8,2.7.8.1,1,0,1.5.8.5,1,1.1,2.6,1.6,3.7a14.34,14.34,0,0,0-.7,2.8A34.34,34.34,0,0,1,3.8,33a14.11,14.11,0,0,0-1.6,6.4,45.81,45.81,0,0,0,.5,8.8,78.89,78.89,0,0,0,.4,16.2A3.26,3.26,0,0,0,5,67.1H9c1.1,0,2.1.2,2.9-.5,1.5-1.3,1.1-4,1.2-5.8H66.9c0,1.8-.4,4.5,1.2,5.8.9.7,1.8.5,2.9.5h4a3,3,0,0,0,1.9-2.7,86.41,86.41,0,0,0,.4-16.2,55.6,55.6,0,0,0,.5-8.8A14.11,14.11,0,0,0,76.2,33a26.59,26.59,0,0,1-2.4-5.1,12.76,12.76,0,0,0-.7-2.8c.5-1.1,1.1-2.7,1.6-3.7.4-.8.6-.7,1.5-.8,2-.3,3.5-1,3.8-2.7A2.2,2.2,0,0,0,79.9,17.1ZM18.7,7c.8-1.4,1-1.8,2.6-2A138.07,138.07,0,0,1,39.9,3.7h0A136.91,136.91,0,0,1,58.5,5c1.6.2,1.9.6,2.6,2a151.62,151.62,0,0,1,6.1,14.2c-9.4-.1-45.4-.1-54.8,0C14.7,16,16.3,11.8,18.7,7ZM9.1,47.7a2,2,0,1,1,2-2A2,2,0,0,1,9.1,47.7Zm3.8-8.2a5,5,0,1,1,5-5A5,5,0,0,1,12.9,39.5ZM61.1,54.3C55.5,57.2,48,57,40,57h0c-7.9,0-15.4.2-21.1-2.7-3-1.5-3.9-3.3-2.7-5.5.9-1.8,1.9-3.6,2.9-5.3s2.9-2.9,5.7-3.1c4.9-.3,10-.4,15.1-.5h0c5.1.1,10.2.2,15.1.5,2.9.2,4.7,1.3,5.7,3.1a39.15,39.15,0,0,1,2.9,5.3C65,51,64.1,52.8,61.1,54.3Zm6-14.8a5,5,0,1,1,5-5A5,5,0,0,1,67.1,39.5Zm3.8,8.2a2,2,0,1,1,2-2A1.89,1.89,0,0,1,70.9,47.7Z"/></g></g></svg>