<svg xmlns="http://www.w3.org/2000/svg" viewBox="0 0 90.07 80.1" width="30"><g id="Layer_2" data-name="Layer 2"><g id="Layer_1-2" data-name="Layer 1"><path fill="#f0ad4e" d="M3,.1a3,3,0,0,0-3,3,3,3,0,0,0,3,3H13C18,18.4,22.9,30.7,27.8,43L23.3,53.9a2.82,2.82,0,0,0,.3,2.8A3,3,0,0,0,26.1,58h50a3.08,3.08,0,0,0,3-3,3.15,3.15,0,0,0-3-3H30.5l2.6-6.2L81.3,42A3.1,3.1,0,0,0,84,39.7l6-26A3.12,3.12,0,0,0,87.1,10H21L17.8,1.9A3.06,3.06,0,0,0,15,0Zm20.4,16H83.2L78.5,36.3,32.9,39.9ZM36,60.1a10,10,0,1,0,10,10A10,10,0,0,0,36,60.1Zm30,0a10,10,0,1,0,10,10A10,10,0,0,0,66,60.1Zm-30,6a4,4,0,1,1-4,4A4,4,0,0,1,36,66.1Zm30,0a4,4,0,1,1-4,4A4,4,0,0,1,66,66.1Z"/></g></g></svg>