<svg xmlns="http://www.w3.org/2000/svg" viewBox="0 0 27 33.8" width="22px">
<g>
	<path d="M12,2.2C12,1,11,0,9.8,0H2.2C1,0,0,1,0,2.2v7.7C0,11,1,12,2.2,12h7.7C11,12,12,11,12,9.8V2.2z"/>
	<path d="M27,2.2C27,1,26,0,24.8,0h-7.7C16,0,15,1,15,2.2v7.7c0,1.2,1,2.2,2.2,2.2h7.7C26,12,27,11,27,9.8V2.2z"/>
	<path d="M12,17.2C12,16,11,15,9.8,15H2.2C1,15,0,16,0,17.2v7.7C0,26,1,27,2.2,27h7.7c1.2,0,2.2-1,2.1-2.2V17.2z"/>
	<path d="M27,17.2c0-1.2-1-2.2-2.2-2.2h-7.7C16,15,15,16,14.9,17.2v7.7c0,1.2,1,2.2,2.2,2.2h7.7c1.2,0,2.2-1,2.2-2.2V17.2z"/>
</g>
</svg>
