<svg xmlns="http://www.w3.org/2000/svg" viewBox="0 0 100.1 78"><title>Asset 3</title><g id="Layer_2" data-name="Layer 2"><g id="Layer_1-2" data-name="Layer 1"><path d="M91.5,30H8.5A8.49,8.49,0,0,0,0,38.5C0,43.2,3.8,48,8.5,48H91.6c4.7,0,8.5-4.7,8.5-9.5A8.51,8.51,0,0,0,91.5,30ZM8.5,18H91.6c4.7,0,8.5-4.7,8.5-9.5A8.51,8.51,0,0,0,91.5,0H8.5A8.49,8.49,0,0,0,0,8.5C0,13.2,3.8,18,8.5,18Zm83,42H8.5A8.49,8.49,0,0,0,0,68.5C0,73.2,3.8,78,8.5,78H91.6c4.7,0,8.5-4.7,8.5-9.5A8.51,8.51,0,0,0,91.5,60Z"/></g></g></svg>