<svg xmlns="http://www.w3.org/2000/svg" viewBox="0 0 300 300"><title>freeship</title><g id="Layer_2" data-name="Layer 2"><g id="Layer_1-2" data-name="Layer 1"><path d="M150,300C67.29,300,0,232.71,0,150S67.29,0,150,0,300,67.29,300,150,232.71,300,150,300ZM150,8.91C72.2,8.9,8.9,72.2,8.9,150S72.2,291.1,150,291.1,291.1,227.8,291.1,150,227.8,8.9,150,8.91Z"/><path d="M214.64,109.58h-73.5a3.69,3.69,0,0,0-3.68,3.67v55.13h-4.33V128a3.68,3.68,0,0,0-3.67-3.67H107.41a5.45,5.45,0,0,0-4.84,3.48l-5,15.08a5.46,5.46,0,0,1-4.84,3.49H85.36A3.68,3.68,0,0,0,81.69,150v22.05a3.69,3.69,0,0,0,3.67,3.68h4.41a17.64,17.64,0,0,1,35.28,0h35.2a17.64,17.64,0,0,1,35.28,0h19.11a3.69,3.69,0,0,0,3.67-3.68v-58.8A3.68,3.68,0,0,0,214.64,109.58Z"/><path d="M177.89,161a14.7,14.7,0,1,0,14.7,14.7A14.7,14.7,0,0,0,177.89,161Zm0,20a5.33,5.33,0,1,1,5.33-5.32A5.33,5.33,0,0,1,177.89,181.05Z"/><path d="M107.41,161a14.7,14.7,0,1,0,14.7,14.7A14.7,14.7,0,0,0,107.41,161Zm0,20a5.33,5.33,0,1,1,5.33-5.32A5.33,5.33,0,0,1,107.41,181.05Z"/><path d="M97.07,249.2a4.1,4.1,0,0,0-1.44,1.86l-1.19,2.32a3.08,3.08,0,0,0-.51,2.11c.16.44.71.9,1.66,1.39l3.67-7.16-.53-.3A2,2,0,0,0,97.07,249.2Z"/><path d="M202.93,50.8a4.1,4.1,0,0,0,1.44-1.86l1.19-2.31a3.09,3.09,0,0,0,.51-2.11c-.16-.45-.71-.91-1.66-1.4l-3.67,7.16.53.3A1.92,1.92,0,0,0,202.93,50.8Z"/><path d="M117.73,257.71a4.18,4.18,0,0,0-1,2.12l-.7,2.5a3.05,3.05,0,0,0-.08,2.17,3.17,3.17,0,0,0,1.9,1l2.17-7.74-.58-.19A1.94,1.94,0,0,0,117.73,257.71Z"/><path d="M182.27,42.29a4.19,4.19,0,0,0,1-2.11l.7-2.51a3,3,0,0,0,.08-2.16,3.12,3.12,0,0,0-1.9-1L180,42.22l.58.18A1.94,1.94,0,0,0,182.27,42.29Z"/><path d="M237.55,225.71l1.33,1.12a2.69,2.69,0,0,0,1.86.86,3,3,0,0,0,1.62-1.2L237,222a3.58,3.58,0,0,0-1,1.73C236,224.14,236.48,224.81,237.55,225.71Z"/><path d="M62.45,74.29l-1.33-1.12a2.67,2.67,0,0,0-1.85-.86,3.18,3.18,0,0,0-1.63,1.2L63,78a3.53,3.53,0,0,0,1-1.73C64,75.86,63.52,75.19,62.45,74.29Z"/><path d="M150,16.47A133.53,133.53,0,1,0,283.53,150,133.53,133.53,0,0,0,150,16.47Zm97.7,124.69,9.85,1.69,7-7.16,1.43,9.89,9,4.42-9,4.42-1.44,9.89-7-7.16-9.84,1.69,4.64-8.84Zm13-25,6.37,3.15-6.37,3.14-1,7-5-5.08-7,1.2,3.3-6.29-3.3-6.29,7,1.2,5-5.09Zm-8.83-37.6a9.84,9.84,0,0,1,4.64,4.15,11.22,11.22,0,0,1,1.94,5.87A7.12,7.12,0,0,1,257.11,93a18.76,18.76,0,0,1-4.64,3.76l-1.15.73-4.38-7L249.37,89a14.33,14.33,0,0,0,2.75-2,1,1,0,0,0,0-1.31,1,1,0,0,0-1-.56,9.31,9.31,0,0,0-2.69,1.37l-12.85,8.08a8.84,8.84,0,0,0-2.22,1.73,1,1,0,0,0,0,1.28,1.2,1.2,0,0,0,1.29.63A9.05,9.05,0,0,0,237.29,97l3.17-2-.88-1.4L243.64,91l5.13,8.14-14.36,9.05-2.75-4.38,1.51-1.85a5.73,5.73,0,0,1-3-.62A5.92,5.92,0,0,1,228,99.16a7.84,7.84,0,0,1-1.22-3.82,7.43,7.43,0,0,1,.65-3.65,7.83,7.83,0,0,1,2-2.65,38.51,38.51,0,0,1,4-2.8l8-5a31,31,0,0,1,5.83-3.09A6.75,6.75,0,0,1,251.86,78.51ZM238,150a88,88,0,1,1-88-88A88,88,0,0,1,238,150Zm-.31-89.57-6.92,13.28,10.15-10,4.82,4.9L223.21,90.8l-5.06-5.13,7.25-13.14L215.15,82.62l-4.82-4.9,22.53-22.18ZM227,51.06,208.41,76.62l-6.64-4.84,18.61-25.56Zm-20.1-12.73a19.8,19.8,0,0,1,4.36,2.82,5.86,5.86,0,0,1,1.72,2.6,5.3,5.3,0,0,1,0,2.71,20.6,20.6,0,0,1-1.71,4L210,53a11.52,11.52,0,0,1-2.57,3.64,4.26,4.26,0,0,1-3,.85,10.81,10.81,0,0,1-4.22-1.33l-2-1-5.8,11.33-7.32-3.74,14.4-28.15Zm-23.22-9.06a19.66,19.66,0,0,1,4.83,1.9,5.87,5.87,0,0,1,2.21,2.2,5.25,5.25,0,0,1,.53,2.66,20.73,20.73,0,0,1-.87,4.31L189.67,43a11.44,11.44,0,0,1-1.79,4.08,4.24,4.24,0,0,1-2.78,1.43,10.89,10.89,0,0,1-4.41-.46l-2.12-.59-3.44,12.26-7.91-2.22L175.74,27ZM160.45,25l8.17.95L165,57.4l-8.17-.95Zm-18-.14L143,36.19l2.46-.12-.56-11.3,8.21-.4L154.7,56l-8.21.41-.66-13.27-2.46.12L144,56.48l-8.21.41L134.25,25.3ZM110,34a6.27,6.27,0,0,1,2.22-3.31,11.8,11.8,0,0,1,4.58-2.21,12.88,12.88,0,0,1,5.54-.42,5.75,5.75,0,0,1,3.56,1.74,13.74,13.74,0,0,1,2.1,5l.32,1.21-7.37,2-.61-2.26a4.65,4.65,0,0,0-.83-1.95,1.12,1.12,0,0,0-1.06-.18,1.25,1.25,0,0,0-.92.88,3.52,3.52,0,0,0,.1,1.87,5.3,5.3,0,0,0,1,2.2,6.25,6.25,0,0,0,2.74,1.26q6.15,1.73,8.07,3.37t3.12,6.14a11.77,11.77,0,0,1,.53,5,6.15,6.15,0,0,1-2.26,3.39,12.05,12.05,0,0,1-4.81,2.42,11.78,11.78,0,0,1-5.76.25A6.13,6.13,0,0,1,116.54,58a16.24,16.24,0,0,1-2.12-5.12l-.54-2,7.38-2,1,3.72a5,5,0,0,0,.91,2.12,1.22,1.22,0,0,0,1.23.2,1.36,1.36,0,0,0,1-.94,3.84,3.84,0,0,0-.11-1.95c-.49-1.8-1-2.91-1.69-3.33A24.41,24.41,0,0,0,119.15,47a38.7,38.7,0,0,1-4.69-1.79,6.92,6.92,0,0,1-2.25-2,11,11,0,0,1-1.7-3.83A11.56,11.56,0,0,1,110,34ZM94.08,37.6l3.14,5.5-4.77,2.72,3,5.21,4.46-2.55,3,5.23L98.4,56.25l3.45,6,5.24-3,3.14,5.5L97.84,71.86,82.17,44.4ZM76.42,48.3l4,4.91-4.25,3.46,3.78,4.65,4-3.24,3.79,4.67-4,3.24,4.38,5.39,4.69-3.8,4,4.91-11.06,9L65.79,57ZM52,71.87a43.48,43.48,0,0,1,5.42-5.74A5.4,5.4,0,0,1,61.29,65c1.5.13,3.28,1.07,5.35,2.8q2.82,2.39,3.2,3.9c.25,1-.13,2.26-1.16,3.74A6.18,6.18,0,0,1,72,74a4.87,4.87,0,0,1,2.1.4,28.93,28.93,0,0,1,3.71,2.86l6.38,5.37-4.91,5.84-8-6.77A7.37,7.37,0,0,0,68.6,80c-.48,0-1.08.35-1.81,1.22L77.7,90.39l-5.3,6.29L48.21,76.32ZM44.6,81.76l5.51,3.11-2.81,5,5.22,3L55,88.37l5.24,3-2.5,4.42,11.56,6.54-4,7.15L37.75,93.88Zm-5.29,34.35,1-7,4.95,5.09,7-1.2L49,119.26l3.3,6.29-7-1.2-5,5.08-1-7-6.37-3.14ZM34,145.58l1.43-9.89,7,7.15,9.84-1.68L47.65,150l4.65,8.84-9.85-1.69-7,7.16L34,154.42l-9-4.42Zm5.27,38.31-6.37-3.15,6.37-3.14,1-7,4.95,5.09,7-1.21L49,180.74l3.3,6.29-7-1.2-4.95,5.09Zm8.83,37.6a9.84,9.84,0,0,1-4.64-4.15,11.11,11.11,0,0,1-1.93-5.87,7,7,0,0,1,1.32-4.5,18.53,18.53,0,0,1,4.64-3.77l1.15-.73,4.38,7L50.63,211a14.11,14.11,0,0,0-2.75,2,1,1,0,0,0,0,1.3,1,1,0,0,0,1,.57,9.58,9.58,0,0,0,2.7-1.38l12.84-8.08a9.48,9.48,0,0,0,2.23-1.72,1.08,1.08,0,0,0,0-1.29,1.21,1.21,0,0,0-1.29-.63,9.05,9.05,0,0,0-2.69,1.31l-3.17,2,.88,1.41L56.36,209l-5.13-8.15,14.36-9.05,2.75,4.38-1.51,1.85a5.73,5.73,0,0,1,3,.62,6,6,0,0,1,2.23,2.17,7.87,7.87,0,0,1,1.22,3.82,7.43,7.43,0,0,1-.65,3.65,7.83,7.83,0,0,1-2,2.65,36,36,0,0,1-4,2.8l-8,5a31,31,0,0,1-5.83,3.09A6.69,6.69,0,0,1,48.14,221.49Zm14.17,18.08,6.92-13.28-10.15,10-4.82-4.9L76.79,209.2l5.06,5.13L74.6,227.47l10.25-10.09,4.82,4.9L67.14,244.47ZM73,249l18.61-25.57,6.65,4.84L79.62,253.79Zm20.1,12.72a19.8,19.8,0,0,1-4.36-2.82,5.8,5.8,0,0,1-1.72-2.6,5.15,5.15,0,0,1,0-2.7,20.38,20.38,0,0,1,1.71-4.05L90,247a11.52,11.52,0,0,1,2.57-3.64,4.26,4.26,0,0,1,3-.85,10.86,10.86,0,0,1,4.22,1.33l2,1,5.8-11.33,7.32,3.74-14.4,28.15Zm23.22,9.06a19.66,19.66,0,0,1-4.83-1.9,5.8,5.8,0,0,1-2.21-2.2,5.24,5.24,0,0,1-.53-2.65,20.49,20.49,0,0,1,.87-4.31l.74-2.66a11.44,11.44,0,0,1,1.79-4.08,4.29,4.29,0,0,1,2.79-1.43,10.85,10.85,0,0,1,4.4.46l2.12.6,3.44-12.27,7.91,2.22L124.26,273ZM139.55,275l-8.17-.95L135,242.6l8.17,1Zm18,.15-.56-11.3-2.46.12.56,11.3-8.21.41-1.57-31.59,8.21-.4.66,13.26,2.46-.12L156,243.52l8.21-.4,1.57,31.58ZM190,266a6.24,6.24,0,0,1-2.22,3.31,12,12,0,0,1-4.58,2.22,13,13,0,0,1-5.54.41,5.75,5.75,0,0,1-3.56-1.74,13.66,13.66,0,0,1-2.1-5l-.32-1.21,7.37-2,.61,2.26a4.65,4.65,0,0,0,.83,2,1.07,1.07,0,0,0,1.06.18,1.25,1.25,0,0,0,.92-.88,3.52,3.52,0,0,0-.1-1.87,5.19,5.19,0,0,0-1-2.19,6.13,6.13,0,0,0-2.74-1.27q-6.15-1.72-8.07-3.37t-3.12-6.14a11.76,11.76,0,0,1-.53-5,6.15,6.15,0,0,1,2.26-3.39,12,12,0,0,1,4.81-2.41,11.79,11.79,0,0,1,5.76-.26,6.13,6.13,0,0,1,3.78,2.28,16.24,16.24,0,0,1,2.12,5.12l.54,2-7.38,2-1-3.72a5,5,0,0,0-.91-2.12,1.25,1.25,0,0,0-1.23-.2,1.37,1.37,0,0,0-1,.94,3.88,3.88,0,0,0,.11,2c.49,1.79,1.05,2.9,1.69,3.32a24.41,24.41,0,0,0,4.46,1.78,40.53,40.53,0,0,1,4.69,1.79,6.92,6.92,0,0,1,2.25,2,11,11,0,0,1,1.7,3.83A11.58,11.58,0,0,1,190,266Zm15.94-3.64-3.14-5.5,4.77-2.72-3-5.2-4.46,2.54-3-5.22,4.47-2.55-3.45-6-5.24,3-3.14-5.49,12.39-7.07,15.67,27.47Zm17.66-10.7-4-4.91,4.26-3.46-3.78-4.65-4,3.24-3.79-4.67,4-3.24-4.39-5.39-4.68,3.81-4-4.91,11.06-9,20,24.53ZM248,228.13a44.46,44.46,0,0,1-5.42,5.75,5.43,5.43,0,0,1-3.91,1.09c-1.5-.13-3.28-1.07-5.35-2.8-1.88-1.59-3-2.88-3.2-3.9s.13-2.26,1.16-3.74A6.18,6.18,0,0,1,228,226a4.73,4.73,0,0,1-2.1-.4,29.46,29.46,0,0,1-3.71-2.85l-6.38-5.37,4.92-5.85,8,6.77A7.37,7.37,0,0,0,231.4,220c.48.05,1.08-.35,1.81-1.22l-10.91-9.18,5.3-6.29,24.19,20.36Zm7.36-9.89-5.51-3.11,2.81-5-5.22-2.95-2.5,4.42-5.24-3,2.5-4.42-11.56-6.54,4-7.15,27.52,15.56Zm5.29-34.35-1,7-5-5.09-7,1.2,3.3-6.29-3.3-6.29,7,1.2,5-5.08,1,7,6.37,3.14Z"/></g></g></svg>