<svg xmlns="http://www.w3.org/2000/svg" viewBox="0 0 94.52 50.29" width="34"><title>truck</title><g id="Layer_2" data-name="Layer 2"><g id="Layer_1-2" data-name="Layer 1"><path fill="#de9e3c" d="M87,21.21V18.27a7.88,7.88,0,0,0-7.87-7.86H69.68a2,2,0,0,0-2,2V38.66H62.79V7.86A7.88,7.88,0,0,0,54.92,0H23a7.88,7.88,0,0,0-7.87,7.86v2.92H13a2,2,0,0,0,0,4H31.35a2,2,0,0,0,0-4H19.13V7.86A3.87,3.87,0,0,1,23,4H54.92a3.86,3.86,0,0,1,3.86,3.86v30.8h-17a9.62,9.62,0,0,0-18.83,0H19.13V29.45h1.22a2,2,0,0,0,0-4H2a2,2,0,0,0,0,4H15.13V40.66a2,2,0,0,0,2,2H23a9.62,9.62,0,0,0,18.83,0H67.89a9.63,9.63,0,0,0,18.84,0h5.79a2,2,0,0,0,2-2V29.07A7.87,7.87,0,0,0,87,21.21ZM32.39,46.29A5.63,5.63,0,1,1,38,40.66,5.64,5.64,0,0,1,32.39,46.29Zm44.92,0a5.63,5.63,0,1,1,5.63-5.63A5.64,5.64,0,0,1,77.31,46.29Zm13.21-7.63H86.73a9.61,9.61,0,0,0-15-5.8V14.41h7.48A3.87,3.87,0,0,1,83,18.27V23.2a2,2,0,0,0,2,2h1.63a3.87,3.87,0,0,1,3.86,3.87Z"/><path fill="#de9e3c" d="M7.5,22.11H25.85a2,2,0,0,0,0-4H7.5a2,2,0,0,0,0,4Z"/></g></g></svg>