<svg xmlns="http://www.w3.org/2000/svg" viewBox="0 0 1022.03 894.27"><title>1yearwarranty</title><g id="Layer_2" data-name="Layer 2"><g id="Layer_1-2" data-name="Layer 1"><path d="M245.84,207.48l-5.94-7.61.34-.37c2.55,1.74,5.22,3.53,8,5.33s5.61,3.56,8.46,5.24l33.4,19.52,16-17.44L254.67,145,242.5,158.25l24.85,30.57q4.2,5.06,8.45,10.06t8.64,10.25l-.35.37q-5.85-3.63-11.53-7.18t-11.24-6.92l-34.78-19.72-10.78,11.79,22.69,32.9q3.95,5.34,8,10.68t8.07,10.77l-.35.38q-5.41-3.91-10.87-7.71c-3.64-2.52-7.22-5.07-10.78-7.62l-32.61-22.09-13,14.24,71.87,44.85,15.7-17.14L251.8,215.44Q248.91,211.41,245.84,207.48Z"/><path d="M335.13,191.54,329.27,172,351,158.8l14.61,14.32,17.06-10.3L317.35,105,298,116.67l20.74,84.78ZM314.9,123.17q4.78,4.72,9.84,9.88t9.82,9.59l5.61,5.57L325,157.39l-2.22-7.62q-1.71-6.27-3.93-13.06l-4.36-13.28Z"/><path d="M410.91,153.94l-8.64-28.75,9.9-3,23.94,24.15,20.2-6.07L428.6,113.81a24.59,24.59,0,0,0,7.78-11.62c1.42-4.57,1.26-9.77-.51-15.65a27,27,0,0,0-6-11.14A21.39,21.39,0,0,0,421,69.75a28.42,28.42,0,0,0-11-1.18,58.66,58.66,0,0,0-12.29,2.36l-28.76,8.65,24,79.76ZM400.53,85.69q7.1-2.13,11.53-.93t6.2,7.07q1.75,5.88-1.07,10t-9.93,6.25l-9.29,2.8-6.74-22.4Z"/><path d="M488.78,138.35l-1-30,10.34-.36,17,29.46,21.07-.73-20-32.66a24.46,24.46,0,0,0,10.49-9.26q3.81-6.08,3.51-15.27a27.12,27.12,0,0,0-3-12.29A21.48,21.48,0,0,0,520,59.5a28.26,28.26,0,0,0-10.29-3.93,58.7,58.7,0,0,0-12.5-.85l-30,1L470,139Zm7.36-68.64c4.94-.16,8.73.51,11.38,2s4.06,4.33,4.2,8.41-1.07,7.23-3.58,9.4-6.26,3.35-11.2,3.51l-9.7.34L486.44,70Z"/><path d="M566.41,122.5l24.87,5.28.87,20.44,19.5,4.15-8.16-86.89-22.12-4.71-42.81,76,18.73,4Zm10.4-20.65q3.06-5.75,6.06-12.23T588.77,77l.5.1q.26,6.72.43,13.94t.6,13.72l.29,7.9-17.37-3.7Z"/><path d="M650.56,138.2a146.19,146.19,0,0,0,6.19-14q2.85-7.43,5.41-13.87l.45.22-.92,19.88.55,46.85L679.45,186l37.71-74.27-15.94-8.1-13.3,26.19a154.27,154.27,0,0,0-6.32,14.27q-3,7.68-5.41,13.89l-.45-.24,1-20.11-.62-46.73L659,82.15l-37.72,74.27,16,8.09Z"/><polygon points="703.72 205.45 718.11 217.71 761.86 166.36 779.26 181.2 789.54 169.13 740.34 127.21 730.06 139.26 747.46 154.1 703.72 205.45"/><path d="M748.42,249.33,760,264.12l23.35-18.27,57.77-13.22L829,217.13,809.25,223q-4.83,1.5-9.36,2.85c-3,.91-6.18,1.88-9.46,2.94l-.32-.39c1.81-2.94,3.56-5.74,5.21-8.39s3.37-5.41,5.12-8.29L811,194.08l-12.45-15.9-26.74,52.88Z"/><path d="M301.91,677.41l-32.44,21.44c-3.59,2.44-7.16,4.87-10.73,7.33s-7.19,5-10.9,7.47l-.34-.36q4.13-5.41,8.17-10.63t7.9-10.38L286.34,660l-10.53-11.74-34.55,19.1c-3.75,2.23-7.52,4.5-11.27,6.79s-7.54,4.6-11.36,6.88l-.35-.37q4.4-4.93,8.64-9.93c2.82-3.34,5.68-6.62,8.53-9.85L260.33,631l-12.71-14.18-51.08,66.25,15.32,17.1L244.81,681c2.82-1.64,5.63-3.34,8.4-5.08l8-5.1.34.37q-3,3.51-6,7.36c-2,2.56-4,5.17-6,7.8l-22.43,30.93,15.57,17.38,71-44Z"/><path d="M271.27,759.65l16.16,9.83,14.48-14.08,21.45,13.05-5.85,19.33L334.32,798l20.76-83.65L336,702.75ZM338,720.53q-1.95,6.35-4.15,13.13c-1.47,4.53-2.76,8.85-3.91,13l-2.31,7.45-15-9.11,5.66-5.42c3.15-2.9,6.35-6,9.64-9.42l9.62-9.87Z"/><path d="M432.74,753.14a28.36,28.36,0,0,0-8.16-7.2,57.59,57.59,0,0,0-11.26-5.11l-28.09-9.45-26.2,78,17.56,5.9,9.45-28.1,9.68,3.25,5.5,33.13L421,830.17,413.75,793a24.34,24.34,0,0,0,12.9-4.92q5.64-4.29,8.53-12.91a26.8,26.8,0,0,0,1.51-12.4A21.13,21.13,0,0,0,432.74,753.14ZM418,769.41c-1.29,3.83-3.48,6.3-6.57,7.44s-6.94.93-11.57-.63l-9.07-3.05,7.34-21.89,9.09,3.06q6.93,2.32,9.83,5.83T418,769.41Z"/><path d="M501.7,806.28a24.27,24.27,0,0,0,11.28-8q4.39-5.57,5.07-14.61a26.62,26.62,0,0,0-1.62-12.4,21,21,0,0,0-6.21-8.36,28,28,0,0,0-9.69-5,57.81,57.81,0,0,0-12.17-2.17l-29.57-2.18-6.07,82,18.5,1.37,2.19-29.58,10.19.76L497.13,839l20.76,1.54Zm-6.28-15.09c-2.72,1.87-6.5,2.63-11.37,2.26l-9.56-.7,1.7-23,9.57.72c4.85.35,8.52,1.43,10.95,3.21s3.51,4.68,3.22,8.71S498.12,789.34,495.42,791.19Z"/><path d="M558.14,816.52l24.78-4.06,8.14,18.48,19.42-3.18-38.68-77-22,3.61-12.11,85.32,18.67-3Zm2.17-22.72q.74-6.39,1.18-13.43t.89-13.76l.49-.09q2.65,6.09,5.41,12.68t5.47,12.38l3.09,7.18-17.3,2.83Z"/><path d="M654,812.09l-11.62-26.73a146.33,146.33,0,0,0-6.78-13.55Q631.68,765,628.41,759l.45-.2L643.41,772l36,29,17.48-7.6L664.11,718l-16.2,7,11.57,26.6a151.17,151.17,0,0,0,6.88,13.79q4,7.08,7.17,12.85l-.47.19L658.42,765l-36-28.94L605,743.7l32.79,75.42Z"/><polygon points="702.18 710.25 742.9 762.96 757.68 751.55 716.96 698.84 734.83 685.04 725.25 672.65 674.74 711.67 684.31 724.05 702.18 710.25"/><path d="M807,703.71l11.78-14.32-22.6-18.59L771,618l-12.35,15,9.89,17.77q2.49,4.34,4.76,8.41c1.52,2.72,3.13,5.54,4.87,8.49l-.33.39-9.19-3.23q-4.36-1.54-9.09-3.15l-19.26-6.37-12.66,15.39,56.7,14.47Z"/><path d="M670.07,414.43q-3.72-14-7.29-27.85h-1q-3.57,14.06-7.14,28t-7.67,27.21l-5.88,20.44h42.67l-5.87-20.44Q673.78,428.48,670.07,414.43Z"/><path d="M841.25,393q-9.07-5.61-26.2-5.62H791.3v54.42h23.75q17.13,0,26.2-7.16t9.06-21.45Q850.31,398.6,841.25,393Z"/><path d="M934.32,590.86h55.77A32,32,0,0,0,1022,558.92V335.35a32,32,0,0,0-31.94-31.94H934.32C874.31,127.18,707.29,0,511,0S147.72,127.18,87.71,303.41H31.94A32,32,0,0,0,0,335.35V558.92a32,32,0,0,0,31.94,31.94H87.71c60,176.24,227,303.41,423.3,303.41S874.31,767.1,934.32,590.86ZM511,16c187.36,0,347.12,120.16,406.44,287.44H741.17C693.13,226.77,608,175.66,511,175.66S328.9,226.77,280.86,303.41H104.57C163.9,136.13,323.66,16,511,16ZM886.09,530.69H852.87l-36-65.42H791.3v65.42H761.66V363.59h56.46a110.14,110.14,0,0,1,24.27,2.55,54.19,54.19,0,0,1,19.43,8.31,40.23,40.23,0,0,1,12.9,15.2q4.72,9.45,4.72,23.51,0,19.15-9.06,30.91a49.86,49.86,0,0,1-24.15,16.86Zm-327.56-99.4v25h-60v49.31h73.58v25H468.85V363.59H569.52v25h-71v42.66ZM299.89,303.41C345.93,236,423.39,191.63,511,191.63S676.09,236,722.14,303.41Zm12.34,60.18h31.68l18.14,42.66q3.58,9.47,7.16,18.27t7.66,18.53h1q4.07-9.71,7.92-18.53t7.41-18.27l18.13-42.66h30.93L392,468.59v62.1H362.3v-62.1ZM722.14,590.86c-46,67.42-123.5,111.78-211.13,111.78S345.94,658.28,299.89,590.86Zm-18.73-60.17-13-45.23h-56.2l-13,45.23H591l54.43-167.1h34.74l54.43,167.1ZM142.32,399.87v-18.4A135.84,135.84,0,0,0,163.4,376a94.88,94.88,0,0,0,16.48-7.79h22V506.67H233.8v24H135.94v-24h36.28V399.87Zm-37.75,191H280.86c48,76.65,133.22,127.75,230.15,127.75s182.12-51.1,230.16-127.75H917.45C858.13,758.14,698.37,878.3,511,878.3S163.9,758.14,104.57,590.86Z"/><polygon points="521.75 236.54 511.01 211.59 500.28 236.54 473.27 239.03 493.66 256.96 487.68 283.45 511.01 269.58 534.34 283.45 528.37 256.96 548.75 239.03 521.75 236.54"/><polygon points="614.63 246.97 606.27 227.56 597.92 246.97 576.9 248.9 592.75 262.84 588.12 283.45 606.27 272.67 624.4 283.45 619.77 262.84 635.62 248.9 614.63 246.97"/><polygon points="424.13 246.97 415.76 227.56 407.42 246.97 386.41 248.9 402.26 262.84 397.62 283.45 415.76 272.67 433.91 283.45 429.28 262.84 445.13 248.9 424.13 246.97"/><polygon points="588.12 662.72 606.27 651.93 624.4 662.72 619.77 642.11 635.62 628.17 614.63 626.23 606.27 606.83 597.92 626.23 576.9 628.17 592.75 642.11 588.12 662.72"/><polygon points="397.62 662.72 415.76 651.93 433.91 662.72 429.28 642.11 445.13 628.17 424.13 626.23 415.76 606.83 407.42 626.23 386.41 628.17 402.26 642.11 397.62 662.72"/><polygon points="487.68 678.69 511.01 664.82 534.34 678.69 528.37 652.19 548.75 634.27 521.75 631.76 511.01 606.83 500.28 631.76 473.27 634.27 493.66 652.19 487.68 678.69"/></g></g></svg>